<?xml version="1.0" standalone="no"?>
<!DOCTYPE svg PUBLIC "-//W3C//DTD SVG 20010904//EN"
 "http://www.w3.org/TR/2001/REC-SVG-20010904/DTD/svg10.dtd">
<svg version="1.0" xmlns="http://www.w3.org/2000/svg"
 width="450.000000pt" height="450.000000pt" viewBox="0 0 450.000000 450.000000"
 preserveAspectRatio="xMidYMid meet">
<metadata>
Created by potrace 1.14, written by Peter Selinger 2001-2017
</metadata>
<g transform="translate(0.000000,450.000000) scale(0.100000,-0.100000)"
fill="#000000" stroke="none">
<path d="M169 4005 c-1 -3 -3 -9 -4 -15 -1 -5 -3 -11 -5 -12 -7 -10 -11 -62
-15 -198 -3 -85 -6 -166 -8 -180 -2 -14 2 -48 8 -77 7 -29 11 -54 8 -56 -2 -2
3 -10 12 -17 8 -7 15 -18 15 -25 0 -8 4 -15 9 -17 5 -1 26 -23 46 -48 21 -25
40 -45 44 -45 3 0 5 -4 3 -8 -1 -5 2 -6 7 -2 6 3 19 -3 31 -15 11 -11 24 -20
28 -20 5 0 17 -8 28 -19 11 -10 40 -31 65 -46 24 -16 47 -33 51 -39 4 -6 8 -8
8 -4 0 8 27 -12 62 -44 10 -10 20 -17 23 -15 2 1 13 -6 25 -15 11 -10 20 -14
20 -10 0 4 10 -4 21 -18 11 -14 18 -18 14 -10 -4 8 3 5 14 -8 11 -13 24 -23
28 -24 21 -2 32 -11 26 -21 -3 -5 -1 -7 4 -4 6 4 16 0 23 -8 7 -8 18 -15 26
-15 7 0 20 -10 28 -22 9 -12 16 -19 16 -14 0 4 17 -5 38 -21 20 -16 50 -37 67
-48 16 -10 38 -27 49 -37 11 -10 25 -18 32 -18 6 0 15 -7 18 -16 4 -9 9 -14
13 -11 3 4 16 -4 28 -18 13 -13 25 -22 28 -19 2 3 19 -10 38 -28 18 -18 29
-26 24 -18 -5 8 9 0 32 -17 22 -18 46 -33 51 -33 6 0 15 -6 19 -13 4 -7 24
-23 43 -35 20 -11 49 -32 65 -46 17 -14 35 -26 41 -26 6 0 18 -7 25 -16 8 -9
30 -27 51 -40 20 -13 47 -34 59 -46 12 -13 18 -17 14 -9 -5 8 8 2 28 -13 20
-16 37 -32 37 -37 0 -5 3 -8 8 -7 8 3 95 -53 100 -64 2 -5 10 -8 18 -8 8 0 14
-4 14 -8 0 -4 14 -16 30 -26 17 -9 40 -27 52 -39 11 -12 17 -15 13 -7 -10 17
35 -18 48 -38 5 -7 12 -10 18 -7 5 4 9 2 9 -3 0 -4 18 -18 40 -31 22 -12 40
-27 40 -32 0 -6 5 -7 10 -4 5 3 10 -1 10 -10 0 -9 4 -14 9 -10 5 3 16 -2 24
-10 9 -8 20 -15 25 -15 5 0 16 -7 23 -17 24 -28 96 -54 144 -52 25 2 45 6 45
11 0 4 5 8 12 8 6 0 20 8 31 18 15 12 18 13 12 2 -5 -8 6 -1 23 17 18 17 41
35 52 38 11 4 20 11 20 16 0 6 4 8 9 5 5 -3 12 1 15 10 4 9 9 14 12 11 3 -3
14 2 23 11 35 33 61 52 61 44 0 -4 7 2 15 12 8 11 15 17 15 13 0 -4 10 2 23
13 36 35 81 65 73 49 -5 -7 3 -2 16 13 14 15 28 25 32 21 3 -3 6 -2 6 3 0 6
14 21 31 33 18 13 29 17 25 10 -4 -8 2 -3 13 11 11 14 21 22 21 18 0 -5 12 2
26 15 14 12 28 21 31 19 2 -2 15 8 28 22 13 14 28 26 33 26 4 0 18 9 30 20 12
12 22 18 22 15 0 -4 7 0 15 7 37 34 107 83 118 83 4 0 11 5 15 10 9 14 82 67
82 61 0 -3 11 6 25 20 14 14 30 22 37 18 6 -4 9 -3 6 2 -3 5 6 18 20 28 15 12
22 14 17 5 -5 -8 3 -3 18 11 14 14 29 25 34 25 4 0 17 9 29 20 23 22 106 80
114 80 3 0 14 8 25 17 49 41 116 88 125 88 6 0 10 5 10 12 0 6 3 8 7 5 3 -4
12 1 20 11 9 10 11 11 7 2 -4 -8 7 0 25 18 18 17 37 30 42 26 5 -3 9 -1 9 4 0
11 102 78 113 74 5 -1 6 2 3 7 -4 5 3 12 14 16 11 3 20 11 20 16 0 6 4 8 9 5
5 -3 12 1 15 10 4 9 9 14 13 11 3 -4 25 9 48 28 23 19 47 35 52 35 6 0 13 7
17 15 3 8 12 15 21 15 8 0 15 5 15 12 0 6 3 9 6 6 3 -3 38 26 79 66 40 39 71
73 69 75 -2 2 0 9 5 15 4 6 16 35 25 63 15 44 16 75 11 195 -8 153 -12 223
-16 223 -1 0 -3 9 -5 20 -8 54 -12 60 -32 61 -12 1 -22 -2 -22 -6 0 -7 -30
-18 -47 -18 -3 0 -9 -4 -12 -9 -8 -11 -68 -53 -76 -53 -3 0 -11 -5 -18 -10
-55 -47 -74 -61 -89 -66 -10 -3 -18 -10 -18 -15 0 -6 -5 -7 -10 -4 -5 3 -10 1
-10 -5 0 -6 -8 -14 -17 -17 -10 -4 -27 -15 -37 -25 -10 -9 -23 -15 -28 -12 -4
3 -8 1 -8 -3 0 -11 -96 -83 -110 -83 -5 0 -10 -4 -10 -10 0 -5 -7 -10 -15 -10
-9 0 -18 -7 -21 -15 -4 -8 -12 -15 -19 -15 -7 0 -18 -7 -25 -15 -7 -8 -17 -12
-23 -8 -5 3 -7 1 -4 -4 6 -9 -20 -27 -31 -23 -2 0 -12 -9 -23 -22 -11 -13 -18
-16 -14 -8 4 8 -3 4 -15 -10 -12 -14 -19 -18 -15 -10 3 8 -2 5 -11 -7 -9 -13
-22 -23 -29 -23 -7 0 -16 -7 -19 -16 -3 -8 -10 -12 -16 -9 -5 3 -10 1 -10 -6
0 -7 -3 -10 -6 -6 -4 3 -15 -4 -25 -16 -10 -12 -18 -19 -19 -15 0 7 -25 -11
-55 -39 -8 -7 -18 -13 -24 -13 -6 0 -11 -5 -11 -12 0 -6 -3 -9 -6 -5 -3 3 -15
-2 -26 -11 -11 -9 -29 -25 -40 -34 -11 -10 -25 -15 -31 -11 -6 3 -7 1 -3 -5 4
-7 3 -12 -2 -12 -5 0 -26 -13 -47 -30 -20 -16 -42 -27 -48 -23 -5 3 -7 2 -4
-4 3 -5 -11 -19 -31 -31 -21 -12 -50 -33 -66 -47 -15 -14 -31 -25 -36 -25 -5
0 -21 -11 -36 -25 -14 -13 -30 -22 -34 -20 -4 3 -11 -2 -14 -11 -4 -9 -9 -14
-12 -11 -3 2 -16 -6 -30 -20 -13 -13 -29 -21 -36 -17 -7 4 -8 3 -4 -4 4 -7 -3
-14 -19 -18 -13 -3 -22 -10 -19 -15 3 -5 0 -9 -5 -9 -18 0 -24 -4 -55 -32 -16
-15 -32 -25 -35 -23 -2 3 -11 -4 -18 -15 -8 -11 -18 -18 -23 -15 -4 3 -10 -2
-14 -10 -3 -8 -10 -15 -16 -15 -6 0 -20 -9 -32 -20 -12 -10 -26 -17 -31 -13
-6 3 -7 1 -3 -5 4 -7 3 -12 -1 -12 -8 0 -132 -85 -160 -110 -7 -6 -13 -8 -13
-5 0 3 -9 -3 -19 -12 -38 -35 -51 -44 -51 -36 0 4 -5 0 -11 -10 -6 -9 -14 -15
-20 -12 -5 4 -9 1 -9 -5 0 -6 -4 -8 -10 -5 -5 3 -10 2 -10 -4 0 -5 -13 -9 -30
-9 -16 1 -30 5 -30 10 0 5 -4 7 -9 3 -5 -3 -16 2 -24 10 -9 8 -20 15 -25 15
-6 0 -12 3 -14 8 -1 4 -24 21 -50 38 -26 17 -44 35 -40 38 4 4 3 7 -3 6 -22
-5 -36 1 -29 12 4 6 3 8 -4 4 -6 -3 -25 9 -43 26 -18 18 -29 26 -24 18 9 -15
-33 16 -47 35 -4 6 -8 6 -8 2 0 -5 -7 -2 -15 6 -8 8 -30 25 -50 37 -19 12 -35
26 -35 31 0 6 -4 8 -9 4 -9 -5 -30 10 -85 62 -11 10 -16 12 -11 5 7 -14 -73
41 -112 76 -12 11 -23 18 -25 16 -2 -2 -19 10 -36 26 -18 16 -36 29 -40 30 -4
0 -14 6 -22 13 -8 7 -36 26 -62 42 -26 16 -44 33 -41 39 3 5 1 6 -4 3 -6 -4
-22 4 -37 18 -15 13 -27 24 -29 24 -12 -2 -35 16 -30 24 3 6 1 7 -5 3 -6 -4
-20 2 -32 14 -11 11 -24 20 -30 20 -5 0 -14 8 -19 18 -6 9 -11 13 -11 9 0 -4
-7 -2 -15 5 -9 7 -21 18 -28 23 -7 6 -33 24 -59 40 -27 17 -48 33 -48 38 0 4
-6 7 -14 7 -8 0 -16 4 -18 8 -1 4 -20 18 -40 31 -21 12 -38 27 -38 32 0 6 -4
8 -8 5 -5 -3 -19 5 -33 17 -13 12 -36 28 -51 36 -15 8 -25 18 -22 23 3 5 1 7
-4 6 -11 -3 -45 18 -74 45 -10 9 -21 17 -25 17 -3 0 -36 21 -72 48 -36 26 -83
58 -103 72 -21 14 -38 28 -38 33 0 4 -7 7 -15 7 -9 0 -27 12 -40 26 -14 15
-25 23 -25 18 0 -5 -4 -4 -8 2 -4 5 -24 20 -44 33 -21 12 -38 27 -38 32 0 6
-4 8 -9 4 -5 -3 -12 -1 -16 5 -13 20 -103 50 -106 35z"/>
<path d="M4296 2585 c-10 -8 -23 -12 -29 -8 -6 3 -7 1 -4 -4 4 -6 -1 -14 -11
-18 -9 -3 -19 -7 -22 -8 -2 -1 -15 -12 -28 -24 -14 -13 -29 -20 -35 -16 -5 3
-7 1 -4 -4 6 -10 -4 -18 -26 -22 -4 0 -21 -13 -38 -28 -17 -16 -34 -28 -38
-28 -3 0 -13 -6 -21 -13 -34 -29 -110 -82 -110 -77 0 3 -9 -3 -19 -12 -37 -33
-50 -43 -61 -43 -5 0 -10 -5 -10 -10 0 -6 -4 -9 -9 -8 -5 2 -16 -5 -23 -15 -7
-10 -21 -19 -30 -21 -9 -1 -26 -13 -38 -26 -12 -14 -18 -18 -14 -10 5 8 -11
-2 -35 -22 -24 -21 -49 -35 -55 -31 -6 3 -8 3 -4 -1 7 -8 -115 -96 -133 -96
-5 0 -7 -4 -4 -10 3 -5 -1 -10 -9 -10 -9 0 -16 -4 -16 -10 0 -5 -9 -10 -21
-10 -11 0 -17 -4 -14 -10 3 -5 0 -10 -8 -10 -8 0 -18 -7 -21 -16 -3 -8 -10
-12 -16 -9 -5 3 -10 1 -10 -5 0 -6 -4 -9 -9 -5 -6 3 -15 -4 -21 -15 -6 -11
-14 -19 -18 -17 -4 1 -18 -8 -31 -20 -13 -12 -29 -20 -34 -16 -6 3 -7 1 -4 -4
6 -10 1 -15 -28 -24 -5 -1 -23 -15 -40 -31 -16 -15 -36 -28 -42 -28 -7 0 -13
-5 -13 -12 0 -6 -3 -9 -6 -6 -3 4 -14 -1 -24 -10 -37 -34 -50 -43 -50 -35 0 4
-4 3 -8 -3 -15 -22 -79 -64 -87 -56 -5 4 -5 2 -2 -4 6 -10 -19 -28 -31 -24 -2
0 -12 -9 -23 -22 -11 -13 -17 -16 -13 -8 4 8 -7 0 -25 -18 -19 -18 -36 -31
-38 -28 -3 2 -13 -3 -23 -12 -28 -26 -43 -37 -75 -58 -17 -10 -33 -23 -37 -29
-4 -5 -8 -7 -8 -3 0 5 -10 -1 -22 -12 -13 -10 -27 -19 -32 -19 -5 0 -12 -4
-15 -9 -14 -22 -115 -91 -125 -85 -6 3 -8 3 -4 -2 8 -9 -51 -51 -65 -47 -5 1
-6 -2 -3 -7 6 -9 -22 -26 -36 -23 -5 1 -8 -2 -8 -7 0 -10 -42 -39 -62 -43 -7
-2 -16 -7 -20 -13 -10 -13 -101 -10 -106 4 -2 6 -7 9 -12 6 -4 -3 -13 2 -20
10 -7 8 -18 15 -26 15 -7 0 -20 10 -28 22 -9 12 -16 18 -16 13 0 -5 -16 7 -37
26 -20 18 -33 28 -28 21 6 -11 3 -11 -14 0 -12 7 -21 16 -21 20 0 4 -20 19
-45 34 -25 14 -45 30 -45 36 0 5 -4 7 -9 3 -6 -3 -14 3 -20 12 -6 10 -11 14
-11 10 0 -5 -7 -2 -15 5 -17 16 -35 29 -61 46 -63 41 -73 50 -66 57 4 5 2 5
-5 1 -7 -4 -21 2 -33 14 -11 11 -24 20 -30 20 -5 0 -10 5 -10 10 0 6 -6 10
-14 10 -8 0 -16 4 -18 8 -2 5 -33 29 -70 54 -37 25 -64 49 -60 53 4 4 2 5 -4
3 -10 -3 -136 79 -169 110 -8 6 -18 12 -23 12 -6 0 -12 4 -14 9 -2 4 -22 20
-45 35 -24 14 -43 31 -43 37 0 5 -4 8 -9 4 -6 -3 -14 3 -20 12 -6 10 -11 14
-11 8 0 -5 -10 1 -21 15 -11 14 -18 19 -14 12 6 -11 3 -11 -13 -1 -12 7 -18
17 -15 23 3 5 1 6 -4 3 -6 -4 -25 8 -43 26 -18 17 -29 25 -25 17 5 -8 -7 -3
-26 13 -18 15 -44 32 -57 37 -12 5 -25 17 -28 25 -4 8 -12 15 -19 15 -8 0 -20
6 -27 13 -7 7 -35 28 -63 47 -27 19 -51 37 -53 42 -2 4 -10 8 -18 8 -8 0 -17
7 -20 15 -4 8 -10 12 -15 9 -5 -3 -9 0 -9 5 0 6 -6 11 -14 11 -8 0 -21 9 -29
20 -8 11 -16 17 -19 14 -3 -2 -20 10 -39 28 -18 18 -29 26 -24 18 8 -13 6 -13
-11 -1 -10 8 -30 26 -43 40 -13 14 -20 20 -16 12 4 -7 -6 -3 -24 10 -17 12
-31 27 -31 31 0 5 -4 7 -8 4 -5 -3 -23 8 -40 23 -17 16 -33 27 -35 24 -3 -2
-19 11 -38 29 -18 18 -29 26 -24 18 7 -12 5 -12 -11 1 -10 9 -33 24 -50 32
-26 13 -34 14 -49 3 -16 -12 -18 -37 -20 -279 -1 -157 2 -267 7 -267 6 0 8 -6
6 -12 -3 -7 4 -21 13 -32 10 -10 16 -24 12 -29 -3 -6 -1 -7 5 -3 7 4 12 0 12
-10 0 -10 3 -15 6 -11 3 3 17 -6 30 -20 13 -14 24 -22 24 -17 0 5 4 4 8 -1 4
-6 28 -25 54 -42 26 -16 45 -33 43 -37 -3 -3 -2 -4 1 -2 7 5 165 -101 176
-118 4 -6 8 -8 8 -4 0 7 25 -11 56 -40 8 -7 14 -10 14 -6 0 4 9 -3 19 -15 11
-12 22 -22 25 -22 16 1 35 -12 30 -20 -3 -5 -2 -9 3 -8 22 4 34 -2 27 -13 -4
-7 -4 -10 1 -6 9 8 61 -25 88 -56 10 -12 16 -14 12 -6 -4 8 3 5 14 -8 11 -13
22 -23 25 -23 17 1 35 -13 29 -22 -3 -5 -1 -7 4 -4 6 4 22 -4 36 -17 14 -13
28 -21 31 -18 3 3 6 0 6 -6 0 -7 6 -12 14 -12 8 0 16 -3 18 -8 3 -7 65 -51
159 -113 22 -14 36 -29 32 -34 -5 -4 -3 -5 3 -2 6 3 22 -5 37 -19 15 -14 27
-21 27 -17 1 4 8 -1 18 -13 9 -11 20 -20 24 -20 4 1 16 -7 27 -16 11 -9 22
-14 25 -11 3 4 6 1 6 -5 0 -7 6 -12 14 -12 8 0 16 -7 20 -15 3 -8 12 -15 21
-15 8 0 15 -3 15 -7 0 -5 21 -21 48 -37 26 -16 55 -39 65 -50 10 -12 15 -15
11 -7 -5 9 2 7 18 -5 14 -10 23 -23 20 -28 -3 -5 0 -6 6 -2 7 4 23 -4 37 -18
14 -14 25 -22 25 -18 1 4 9 -2 18 -13 10 -11 24 -21 32 -23 8 -2 23 -13 33
-25 10 -12 16 -15 12 -7 -4 8 2 5 13 -7 11 -12 22 -19 26 -16 3 4 6 1 6 -5 0
-7 6 -12 14 -12 8 0 16 -4 18 -8 2 -5 26 -23 53 -42 28 -18 52 -36 55 -39 3
-3 12 -10 22 -16 63 -38 136 -94 130 -100 -4 -4 -2 -5 3 -4 12 4 64 -23 64
-33 1 -5 2 -7 4 -5 2 1 14 -5 27 -14 33 -21 69 -29 76 -17 3 5 13 7 21 4 8 -3
11 -1 8 4 -3 6 -1 10 6 10 7 0 21 8 32 18 15 12 18 13 12 2 -4 -8 1 -6 12 5
31 31 73 65 73 60 0 -3 9 4 20 15 12 12 26 18 33 14 7 -4 9 -4 5 1 -8 8 81 72
95 67 5 -1 6 2 3 7 -4 5 3 12 14 16 11 3 20 11 20 16 0 6 5 7 10 4 6 -3 13 1
16 9 3 9 12 16 19 16 6 0 20 9 30 20 10 11 22 17 26 14 5 -3 9 -1 9 3 0 5 23
26 51 47 29 21 48 32 43 25 -4 -8 9 3 30 23 22 21 45 38 51 38 7 0 18 7 25 15
7 8 17 12 23 8 5 -3 8 -2 5 3 -3 5 6 18 20 28 15 12 22 14 17 5 -5 -8 4 -2 19
13 16 15 33 25 39 21 6 -3 7 -1 3 5 -4 7 -3 12 3 12 5 0 23 12 40 26 17 14 31
23 31 19 0 -3 7 1 16 10 18 18 127 95 155 110 11 5 19 13 19 18 0 4 5 5 10 2
6 -3 10 -2 10 3 0 6 24 25 53 43 28 19 57 40 64 49 7 8 13 11 13 6 0 -6 16 6
37 25 20 18 32 27 28 19 -4 -8 5 -3 21 11 16 15 43 35 59 45 17 10 34 24 38
31 5 8 12 11 17 8 4 -3 10 2 14 10 3 8 12 15 21 15 8 0 15 5 15 12 0 6 3 9 6
5 4 -3 15 4 26 16 11 12 16 15 12 7 -4 -8 5 -3 21 13 15 15 31 27 35 27 6 0
22 12 67 50 7 5 17 10 23 10 5 0 10 5 10 11 0 5 5 7 10 4 6 -3 10 -2 10 3 0 7
89 71 148 107 9 6 22 17 29 25 7 8 13 12 13 8 0 -4 12 4 26 17 15 14 31 22 37
18 5 -3 7 -2 4 3 -3 6 3 16 15 23 16 10 19 10 13 -1 -4 -7 3 -2 14 12 11 14
21 21 21 16 0 -6 6 -1 14 10 8 10 20 19 28 19 7 0 14 6 14 13 1 6 2 17 3 23 0
5 5 8 9 5 4 -2 10 7 12 22 5 34 4 519 -2 550 -6 34 -20 43 -42 27z"/>
<path d="M160 1100 c-14 -43 -20 -492 -7 -543 5 -17 18 -32 35 -38 25 -10 378
-14 714 -9 115 2 128 4 133 21 4 10 11 19 16 19 20 0 8 18 -16 24 -14 4 -25
11 -25 17 0 6 -4 8 -9 5 -5 -3 -19 4 -33 17 -13 12 -27 23 -32 23 -4 1 -19 11
-32 23 -13 11 -24 18 -24 14 0 -3 -8 4 -19 15 -10 12 -21 19 -25 15 -3 -3 -6
-1 -6 5 0 7 -5 12 -11 12 -11 0 -82 50 -87 63 -2 4 -10 7 -17 7 -7 0 -27 13
-44 29 -17 16 -31 26 -31 23 0 -4 -7 1 -14 11 -8 10 -16 17 -19 15 -3 -2 -17
7 -31 20 -15 12 -30 22 -35 22 -5 0 -22 12 -39 28 -17 15 -36 28 -44 30 -7 2
-21 12 -30 23 -9 11 -18 19 -20 19 -10 -4 -37 14 -32 21 3 5 2 8 -3 7 -11 -3
-73 34 -73 44 0 4 -5 8 -10 8 -6 0 -23 9 -38 19 -15 10 -39 22 -53 25 -23 5
-27 1 -39 -34z"/>
<path d="M4270 1127 c-40 -21 -114 -71 -122 -82 -5 -7 -8 -7 -8 0 0 6 -4 5 -8
-2 -8 -12 -392 -285 -392 -278 0 2 -12 -7 -26 -20 -15 -14 -31 -22 -37 -18 -5
3 -7 2 -4 -4 3 -5 -8 -18 -26 -28 -18 -11 -41 -27 -51 -37 -10 -9 -24 -15 -29
-11 -6 3 -7 1 -3 -5 3 -6 -3 -13 -14 -17 -20 -6 -59 -41 -89 -78 -12 -15 -10
-18 15 -28 38 -14 806 -14 833 1 10 5 23 22 28 37 5 16 8 141 8 278 -1 232 -2
253 -21 278 -22 31 -22 31 -54 14z"/>
</g>
</svg>
