<?xml version="1.0" standalone="no"?>
<!DOCTYPE svg PUBLIC "-//W3C//DTD SVG 20010904//EN"
 "http://www.w3.org/TR/2001/REC-SVG-20010904/DTD/svg10.dtd">
<svg version="1.0" xmlns="http://www.w3.org/2000/svg"
 width="1024.000000pt" height="1024.000000pt" viewBox="0 0 1024.000000 1024.000000"
 preserveAspectRatio="xMidYMid meet">
<metadata>
Created by potrace 1.14, written by Peter Selinger 2001-2017
</metadata>
<g transform="translate(0.000000,1024.000000) scale(0.100000,-0.100000)"
fill="#000000" stroke="none">
<path d="M4835 10234 c-411 -27 -824 -99 -1185 -208 -1217 -365 -2258 -1172
-2914 -2259 -394 -652 -631 -1366 -712 -2142 -25 -238 -25 -772 0 -1010 34
-328 102 -672 190 -965 365 -1217 1172 -2258 2259 -2914 652 -394 1366 -631
2142 -712 238 -25 772 -25 1010 0 1200 125 2274 634 3115 1476 677 677 1151
1527 1365 2447 95 409 129 718 129 1173 0 455 -34 764 -129 1173 -309 1331
-1160 2500 -2338 3211 -648 391 -1372 633 -2132 711 -143 15 -670 27 -800 19z
m235 -2494 l0 -570 405 0 405 0 0 -340 0 -340 -405 0 -405 0 0 -655 0 -655
-340 0 -340 0 0 455 0 455 -860 0 -860 0 0 -455 0 -455 -370 0 -371 0 3 1098
c3 1094 3 1097 25 1174 100 350 311 604 627 754 79 37 223 83 306 97 14 2 510
5 1103 6 l1077 1 0 -570z m2302 545 c237 -41 447 -155 624 -337 123 -127 205
-260 260 -424 55 -165 54 -140 54 -1290 l0 -1064 -425 0 -425 0 0 -340 0 -340
-545 0 -545 0 0 340 0 340 -400 0 -400 0 0 400 0 400 400 0 400 0 0 855 0 855
-400 0 -400 0 0 310 0 310 859 0 c714 0 873 -2 943 -15z m-3502 -3170 l0 -455
595 0 595 0 0 -340 0 -340 -400 0 -400 0 0 -655 0 -655 400 0 400 0 0 -370 0
-370 -1069 0 c-1163 0 -1144 -1 -1304 57 -163 58 -287 135 -409 251 -134 128
-231 279 -288 446 -61 177 -60 167 -60 1112 l0 864 625 0 625 0 0 455 0 455
345 0 345 0 0 -455z"/>
</g>
</svg>
